<?xml version="1.0" standalone="no"?><!DOCTYPE svg PUBLIC "-//W3C//DTD SVG 1.1//EN" "http://www.w3.org/Graphics/SVG/1.1/DTD/svg11.dtd"><svg t="1705506536841" class="icon" viewBox="0 0 1024 1024" version="1.1" xmlns="http://www.w3.org/2000/svg" p-id="7049" xmlns:xlink="http://www.w3.org/1999/xlink" width="200" height="200"><path d="M999.018 856.724H24.982a9.974 9.974 0 0 1-9.974-9.974V177.25a9.974 9.974 0 0 1 9.974-9.974h974.036a9.974 9.974 0 0 1 9.974 9.974v669.5a9.974 9.974 0 0 1-9.974 9.974z" fill="#D8ECFE" p-id="7050"></path><path d="M1009 177.252v669.496a10 10 0 0 1-9.986 9.986h-40.022a10 10 0 0 0 9.986-9.986V177.252a10 10 0 0 0-9.986-9.986h40.022a10.002 10.002 0 0 1 9.986 9.986z" fill="#C4E2FF" p-id="7051"></path><path d="M933.26 374.282c0-17.472-8.046-33.06-20.628-43.28 12.582-10.22 20.628-25.808 20.628-43.28 0-30.784-24.956-55.738-55.738-55.738-21.602 0-40.32 12.298-49.572 30.266-9.252-17.968-27.97-30.266-49.572-30.266s-40.32 12.298-49.572 30.266c-9.252-17.968-27.97-30.266-49.572-30.266s-40.32 12.298-49.572 30.266c-9.252-17.968-27.97-30.266-49.572-30.266s-40.32 12.298-49.572 30.266c-9.252-17.968-27.97-30.266-49.572-30.266-30.784 0-55.738 24.956-55.738 55.738 0 17.472 8.046 33.062 20.628 43.28-12.582 10.22-20.628 25.808-20.628 43.28 0 19.046 9.558 35.852 24.134 45.906-14.574 10.054-24.134 26.86-24.134 45.906s9.558 35.852 24.134 45.906c-14.574 10.054-24.134 26.86-24.134 45.906s9.558 35.852 24.134 45.906c-14.574 10.054-24.134 26.86-24.134 45.906 0 17.472 8.046 33.06 20.628 43.28-12.582 10.22-20.628 25.808-20.628 43.28 0 30.784 24.956 55.738 55.738 55.738 21.602 0 40.32-12.298 49.572-30.266 9.252 17.968 27.97 30.266 49.572 30.266s40.32-12.298 49.572-30.266c9.252 17.968 27.97 30.266 49.572 30.266s40.32-12.298 49.572-30.266c9.252 17.968 27.97 30.266 49.572 30.266s40.32-12.298 49.572-30.266c9.252 17.968 27.97 30.266 49.572 30.266 30.784 0 55.738-24.956 55.738-55.738 0-17.472-8.046-33.06-20.628-43.28 12.582-10.22 20.628-25.808 20.628-43.28 0-19.046-9.558-35.852-24.134-45.906 14.574-10.054 24.134-26.86 24.134-45.906s-9.558-35.852-24.134-45.906c14.574-10.054 24.134-26.86 24.134-45.906s-9.558-35.852-24.134-45.906c14.576-10.054 24.134-26.86 24.134-45.906z" fill="#F3F0F3" p-id="7052"></path><path d="M933.256 374.282c0-17.47-8.044-33.058-20.632-43.284 12.708-10.324 20.786-26.094 20.63-43.79-0.258-29.044-23.41-53.438-52.406-55.128a55.49 55.49 0 0 0-29.058 6.206c17.83 9.266 30.016 27.936 30.016 49.428a55.416 55.416 0 0 1-9.686 31.4c-4.864 7.112-4.866 16.654-0.002 23.768a55.44 55.44 0 0 1 9.688 31.4 55.466 55.466 0 0 1-10.872 33.066c-5.594 7.574-5.594 18.106 0 25.68 6.83 9.248 10.872 20.684 10.872 33.066s-4.042 23.818-10.872 33.066c-5.594 7.574-5.594 18.106 0 25.68 6.83 9.248 10.872 20.684 10.872 33.066s-4.042 23.818-10.872 33.066c-5.594 7.574-5.594 18.106 0 25.68a55.466 55.466 0 0 1 10.872 33.066 55.46 55.46 0 0 1-9.688 31.4c-4.862 7.114-4.86 16.656 0.002 23.768a55.416 55.416 0 0 1 9.686 31.4c0 21.492-12.186 40.162-30.016 49.428 8.596 4.5 18.544 6.82 29.058 6.206 28.996-1.692 52.148-26.086 52.404-55.13 0.156-17.694-7.922-33.464-20.63-43.788 12.586-10.226 20.632-25.814 20.632-43.284 0-19.05-9.546-35.86-24.134-45.906 14.588-10.046 24.134-26.856 24.134-45.906s-9.546-35.86-24.134-45.906c14.588-10.046 24.134-26.856 24.134-45.906s-9.546-35.86-24.134-45.906c14.592-10.046 24.136-26.854 24.136-45.906z" fill="#E2DEE2" p-id="7053"></path><path d="M711.228 562.198h-63.994l-13.546 132.11a8.818 8.818 0 0 0 8.726 10.076h73.63a8.818 8.818 0 0 0 8.726-10.076z" fill="#E49280" p-id="7054"></path><path d="M716.05 704.38h-34.924a8.81 8.81 0 0 0 8.73-10.07l-13.548-132.112h34.924l13.532 132.112a8.79 8.79 0 0 1-8.714 10.07z" fill="#DD7F66" p-id="7055"></path><path d="M606.076 455.336c-33.32 31.074-67.874 71.966-73.056 103.816-2.07 12.714 4.688 25.268 16.31 30.822a292.688 292.688 0 0 0 19.312 8.36c71.888 28.176 151.986 27.806 223.634-0.978a288.564 288.564 0 0 0 16.856-7.386c11.612-5.55 18.364-18.066 16.312-30.772-5.312-32.882-40.336-72.222-74.77-103.862z" fill="#46CC8D" p-id="7056"></path><path d="M809.134 589.968a288.634 288.634 0 0 1-16.858 7.392 326.174 326.174 0 0 1-13.252 4.978c7.702-7.312 11.75-18.752 10.102-30.338-5.256-36.898-39.706-81.01-73.846-116.67h35.398c34.434 31.644 69.456 70.99 74.76 103.874 2.056 12.698-4.684 25.216-16.304 30.764z" fill="#00C27A" p-id="7057"></path><path d="M792.224 440.946c-6.474-42.204-76.854-98.376-103.154-118.05a16.42 16.42 0 0 0-19.678 0c-26.3 19.676-96.68 75.846-103.154 118.05-1.488 9.704 3.802 19.182 12.66 23.416 3.336 1.594 7.386 3.416 12.084 5.326a234.464 234.464 0 0 0 176.494 0 222.136 222.136 0 0 0 12.084-5.326c8.86-4.234 14.152-13.712 12.664-23.416z" fill="#6ED5A1" p-id="7058"></path><path d="M779.564 464.356c-3.346 1.6-7.392 3.428-12.092 5.336a213.506 213.506 0 0 1-9.286 3.542c4.128-4.88 6.168-11.358 5.156-17.936-6.626-43.182-78.612-100.628-105.506-120.766a14.216 14.216 0 0 0-1.942-1.24 600.114 600.114 0 0 1 13.496-10.396 16.4 16.4 0 0 1 19.682 0c26.29 19.666 96.678 75.838 103.156 118.04 1.484 9.712-3.802 19.194-12.664 23.42z" fill="#46CC8D" p-id="7059"></path><path d="M999.018 152.268H24.982C11.208 152.268 0 163.474 0 177.25v473.68a15.008 15.008 0 0 0 30.016 0V182.284h963.966v659.43H30.016v-122.158a15.008 15.008 0 0 0-30.016 0v127.194c0 13.776 11.208 24.982 24.982 24.982h974.034c13.776 0 24.982-11.206 24.982-24.982V177.25c0.002-13.776-11.206-24.982-24.98-24.982z" p-id="7060"></path><path d="M480.94 807.026c18.914 0 36.566-7.436 49.572-20.242 13.008 12.806 30.658 20.242 49.572 20.242s36.566-7.436 49.572-20.242c13.008 12.806 30.658 20.242 49.572 20.242s36.566-7.436 49.572-20.242c13.008 12.806 30.658 20.242 49.572 20.242 18.916 0 36.566-7.434 49.572-20.242 13.01 12.808 30.658 20.242 49.572 20.242 39.01 0 70.746-31.738 70.746-70.748 0-15.888-5.256-31.014-14.772-43.28 9.516-12.266 14.772-27.394 14.772-43.282a70.734 70.734 0 0 0-16.93-45.906c10.802-12.662 16.93-28.888 16.93-45.906s-6.128-33.242-16.93-45.906c10.802-12.664 16.93-28.888 16.93-45.906s-6.128-33.244-16.93-45.906a70.73 70.73 0 0 0 16.93-45.906c0-15.886-5.256-31.014-14.772-43.282 9.516-12.266 14.772-27.394 14.772-43.28 0-39.01-31.736-70.748-70.746-70.748-18.924 0-36.584 7.442-49.592 20.264a72.224 72.224 0 0 0-4.924-4.4 15.01 15.01 0 0 0-18.956 23.274 40.748 40.748 0 0 1 10.556 13.01 15.01 15.01 0 0 0 26.688 0c7.03-13.65 20.912-22.13 36.23-22.13 22.458 0 40.73 18.272 40.73 40.73 0 12.318-5.498 23.846-15.08 31.63a15.012 15.012 0 0 0 0 23.3c9.584 7.784 15.08 19.312 15.08 31.63a40.78 40.78 0 0 1-17.646 33.552 15.012 15.012 0 0 0 0 24.708c11.05 7.622 17.646 20.164 17.646 33.55s-6.598 25.93-17.646 33.552a15.012 15.012 0 0 0 0 24.708 40.772 40.772 0 0 1 17.646 33.552 40.772 40.772 0 0 1-17.646 33.55 15.012 15.012 0 0 0 0 24.708 40.776 40.776 0 0 1 17.646 33.552 40.594 40.594 0 0 1-15.08 31.63 15.012 15.012 0 0 0 0 23.3c9.584 7.784 15.08 19.312 15.08 31.63 0 22.458-18.272 40.73-40.73 40.73-15.318 0-29.2-8.48-36.23-22.13a15.01 15.01 0 0 0-26.688 0c-7.028 13.648-20.91 22.128-36.23 22.128s-29.202-8.48-36.23-22.128a15.006 15.006 0 0 0-26.688 0c-7.028 13.648-20.91 22.128-36.23 22.128s-29.202-8.48-36.23-22.128a15.008 15.008 0 0 0-26.688 0c-7.028 13.648-20.91 22.128-36.23 22.128s-29.202-8.48-36.23-22.128a15.008 15.008 0 0 0-26.688 0c-7.028 13.648-20.91 22.128-36.23 22.128-22.458 0-40.73-18.272-40.73-40.73 0-12.316 5.498-23.846 15.082-31.63a15.012 15.012 0 0 0 0-23.3c-9.584-7.784-15.082-19.314-15.082-31.63a40.78 40.78 0 0 1 17.648-33.552 15.012 15.012 0 0 0 0-24.708c-11.05-7.622-17.648-20.164-17.648-33.55s6.598-25.928 17.648-33.552a15.012 15.012 0 0 0 0-24.708 40.774 40.774 0 0 1-17.648-33.552 40.772 40.772 0 0 1 17.648-33.55 15.012 15.012 0 0 0 0-24.708 40.78 40.78 0 0 1-17.648-33.552c0-12.318 5.498-23.846 15.082-31.63a15.012 15.012 0 0 0 0-23.3c-9.584-7.784-15.082-19.314-15.082-31.63 0-22.458 18.272-40.73 40.73-40.73 15.32 0 29.202 8.48 36.23 22.128a15.008 15.008 0 0 0 26.688 0c7.028-13.648 20.91-22.128 36.23-22.128s29.202 8.48 36.23 22.128a15.008 15.008 0 0 0 26.688 0c7.028-13.648 20.91-22.128 36.23-22.128s29.202 8.48 36.23 22.128a15.006 15.006 0 0 0 26.688 0 41.264 41.264 0 0 1 11.774-13.962 15.01 15.01 0 0 0-18.066-23.97 70.736 70.736 0 0 0-7.024 6.058c-13.01-12.824-30.674-20.27-49.602-20.27-18.916 0-36.566 7.436-49.572 20.242-13.008-12.806-30.658-20.242-49.572-20.242s-36.566 7.436-49.572 20.242c-13.008-12.806-30.658-20.242-49.572-20.242-39.01 0-70.748 31.738-70.748 70.748 0 15.886 5.258 31.012 14.772 43.28-9.514 12.268-14.772 27.396-14.772 43.282a70.734 70.734 0 0 0 16.93 45.906c-10.802 12.664-16.93 28.89-16.93 45.906s6.128 33.242 16.93 45.906c-10.802 12.664-16.93 28.89-16.93 45.906s6.128 33.242 16.93 45.906a70.734 70.734 0 0 0-16.93 45.906c0 15.886 5.258 31.014 14.772 43.282-9.514 12.268-14.772 27.394-14.772 43.28 0.006 39.01 31.744 70.748 70.754 70.748zM90.74 614.476h264.246a15.008 15.008 0 0 0 0-30.016H90.74a15.008 15.008 0 0 0 0 30.016zM90.74 689.886h264.246a15.008 15.008 0 0 0 0-30.016H90.74a15.008 15.008 0 0 0 0 30.016zM90.74 765.296h264.246a15.008 15.008 0 0 0 0-30.016H90.74a15.008 15.008 0 0 0 0 30.016z" p-id="7061"></path><path d="M698.06 310.878c-11.084-8.294-26.572-8.294-37.66 0-87.864 65.73-106.002 108.28-108.996 127.794-2.1 13.7 3.944 27.47 15.022 35.604-21.8 24.344-43.71 54.766-48.218 82.464-3.112 19.116 7.026 38.352 24.652 46.774a307.2 307.2 0 0 0 20.308 8.792 319.414 319.414 0 0 0 62.062 17.348l-6.448 62.886a23.81 23.81 0 0 0 5.62 18.62 23.814 23.814 0 0 0 18.012 8.23h73.63c6.918 0 13.482-3 18.012-8.23a23.81 23.81 0 0 0 5.62-18.62l-6.448-62.886a319.78 319.78 0 0 0 64.642-18.374 305.696 305.696 0 0 0 17.732-7.77c17.602-8.412 27.74-27.62 24.656-46.706-3.786-23.432-20.202-50.956-48.82-82.078 11.462-8.074 17.754-22.108 15.616-36.056v-0.002c-6.968-45.458-71.28-99.576-108.994-127.79z m-116.988 132.344c3.798-24.744 41.084-66.246 97.308-108.308a1.42 1.42 0 0 1 1.698 0c56.226 42.064 93.514 83.564 97.31 108.308 0.464 3.042-1.304 6.168-4.3 7.6a207.322 207.322 0 0 1-11.266 4.964c-53.258 21.658-111.922 21.658-165.188 0a207.02 207.02 0 0 1-11.264-4.964c-2.996-1.434-4.764-4.56-4.298-7.6z m68.21 246.152l5.742-55.998c8.054 0.618 16.122 0.946 24.194 0.946 8.078 0 16.158-0.326 24.22-0.946l5.742 55.998z m161.346-127.78c0.976 6.028-2.302 12.128-7.968 14.836a274.676 274.676 0 0 1-15.978 7c-68.448 27.5-143.938 27.83-212.562 0.932a276.38 276.38 0 0 1-18.316-7.928c-5.678-2.712-8.954-8.828-7.972-14.87 3.04-18.678 20.292-45.442 47.342-74.22 27.294 9.8 55.67 14.714 84.056 14.714 28.064 0 56.132-4.8 83.142-14.38 28.284 29.304 45.21 55.052 48.256 73.916z" p-id="7062"></path></svg>